<svg width="550" height="490" viewBox="0 0 550 490" fill="none" xmlns="http://www.w3.org/2000/svg">
<path d="M174.02 231.729C175.615 208.515 191.9 188.933 214.434 183.134L466.232 118.332C500.404 109.537 533.691 135.343 533.691 170.628V429.971C533.691 459.794 509.514 483.971 479.691 483.971H214.528C183.248 483.971 158.511 457.476 160.655 426.27L174.02 231.729Z" fill="#6197D6" style="fill:#6197D6;fill:color(display-p3 0.3793 0.5937 0.8387);fill-opacity:1;"/>
<rect x="96.6909" y="100.971" width="437" height="373" rx="54" stroke="black" style="stroke:black;stroke-opacity:1;" stroke-width="31"/>
<path d="M17.1707 145.85C9.64169 116.112 28.3661 86.0833 58.3823 79.757L357.69 16.6734C386.045 10.6972 414.063 28.1672 421.175 56.2589L493.893 343.472C501.422 373.209 482.697 403.238 452.681 409.565L153.373 472.648C125.018 478.625 97.0005 461.155 89.8882 433.063L17.1707 145.85Z" stroke="black" style="stroke:black;stroke-opacity:1;" stroke-width="31"/>
</svg>
