<svg width="531" height="485" viewBox="0 0 531 485" fill="none" xmlns="http://www.w3.org/2000/svg">
<path d="M170.647 229.108C172.242 205.894 188.527 186.313 211.062 180.513L462.86 115.711C497.031 106.917 530.318 132.722 530.318 168.007V427.35C530.318 457.173 506.142 481.35 476.318 481.35H211.155C179.875 481.35 155.138 454.856 157.282 423.649L170.647 229.108Z" fill="#B8CA8E" style="fill:#B8CA8E;fill:color(display-p3 0.7216 0.7922 0.5569);fill-opacity:1;"/>
<rect x="108.818" y="113.85" width="406" height="342" rx="38.5" stroke="black" style="stroke:black;stroke-opacity:1;" stroke-width="31"/>
<path d="M58.2068 92.3031L357.514 29.2197C377.73 24.9588 397.706 37.4146 402.776 57.443L475.494 344.655C480.862 365.857 467.512 387.266 446.112 391.777L146.804 454.86C126.588 459.121 106.613 446.666 101.542 426.638L28.8235 139.425C23.4558 118.223 36.8064 96.8135 58.2068 92.3031Z" stroke="black" style="stroke:black;stroke-opacity:1;" stroke-width="31"/>
</svg>
